:version 1.10
:name ASF
:units
  mass 1
  length 1
  angle deg
:documentation
  ASF file generated by Kaydara
:root
  axis xyz
  order  tx ty tz rx ry rz
  position 0 0 0
  orientation 0 0 0
:bonedata
  begin
    id 1
    name LeftUpLegDummy
    direction 1 -2.30186e-007 -8.31532e-007
    length 2.93387
    axis 0 0 0 xyz
  end
  begin
    id 2
    name LeftUpLeg
    direction -1.82929e-007 -1 -1.48925e-009
    length 17.3336
    axis -3.48766 0.00143442 -0.000521554 xyz
    dof rx ry rz
  end
  begin
    id 3
    name LeftLeg
    direction -1.82929e-007 -1 -5.23717e-011
    length 14.9995
    axis 3.68178 -0.00654042 -0.000282425 xyz
    dof rx ry rz
  end
  begin
    id 4
    name LeftFoot
    direction 8.31532e-007 -4.54534e-011 1
    length 6.74421
    axis 1.87234e-006 4.66016e-005 -5.96866e-006 xyz
    dof rx ry rz
  end
  begin
    id 5
    name LeftToes
    direction 0.00818058 -0.00485161 0.999955
    length 3.85048
    axis 1.06247e-005 4.65869e-005 -5.96999e-006 xyz
    dof rx ry rz
  end
  begin
    id 6
    name SpineDummy
    direction -5.8607e-008 0.943407 -0.331637
    length 5.93572
    axis 0 0 0 xyz
  end
  begin
    id 7
    name Spine
    direction -1.04988e-007 0.999988 0.00495137
    length 10.1015
    axis -0.001389 0.000121417 6.61666e-006 xyz
    dof rx ry rz
  end
  begin
    id 8
    name Spine1
    direction 0 0 0
    length 0
    axis -0.001389 0.00012144 6.56766e-006 xyz
    dof rx ry rz
  end
  begin
    id 9
    name RightShoulderDummy
    direction -0.98348 0.17941 -0.0240696
    length 3.59882
    axis -0.001389 0.00012144 6.56766e-006 xyz
  end
  begin
    id 10
    name RightShoulder
    direction -0.978693 0.204882 0.0135597
    length 2.70001
    axis 0.215806 0.000203631 -0.00679732 xyz
    dof rx ry rz
  end
  begin
    id 11
    name RightArm
    direction -1 3.85509e-006 8.31394e-007
    length 10.2459
    axis -23.2009 -0.134239 -0.964098 xyz
    dof rx ry rz
  end
  begin
    id 12
    name RightForeArm
    direction -1 3.85569e-006 8.3129e-007
    length 8.16799
    axis -9.92322 0.0658061 0.17887 xyz
    dof rx ry rz
  end
  begin
    id 13
    name RightHand
    direction -0.992843 -0.0414604 0.112003
    length 5.28593
    axis -0.00960638 0.00330669 -0.185225 xyz
    dof rx ry rz
  end
  begin
    id 14
    name LeftShoulder1Dummy
    direction 0.983523 0.179172 -0.0240748
    length 3.59866
    axis -0.001389 0.00012144 6.56766e-006 xyz
  end
  begin
    id 15
    name LeftShoulder1
    direction 0.978627 0.205195 0.0135605
    length 2.70019
    axis -0.001389 0.00012144 6.57583e-006 xyz
    dof rx ry rz
  end
  begin
    id 16
    name LeftArm
    direction 1 3.51895e-006 -8.60188e-007
    length 10.2459
    axis -23.1894 0.134785 0.967513 xyz
    dof rx ry rz
  end
  begin
    id 17
    name LeftForeArm
    direction 1 3.51921e-006 -7.32029e-007
    length 8.16799
    axis -9.91835 -0.0656957 -0.177789 xyz
    dof rx ry rz
  end
  begin
    id 18
    name LeftHand
    direction 0.992938 -0.0411636 0.11126
    length 5.32135
    axis -0.00960237 -0.00340661 0.185177 xyz
    dof rx ry rz
  end
  begin
    id 19
    name HEadDummy
    direction 1.01974e-006 0.999861 -0.016675
    length 2.99946
    axis -0.001389 0.00012144 6.56766e-006 xyz
  end
  begin
    id 20
    name HEad
    direction -0.0222689 0.980941 0.193023
    length 5.12695
    axis -0.001389 0.00012144 6.56766e-006 xyz
    dof rx ry rz
  end
  begin
    id 21
    name RightUpLegDummy
    direction -1 2.30186e-007 8.31532e-007
    length 2.93387
    axis 0 0 0 xyz
  end
  begin
    id 22
    name RightUpLeg
    direction -1.82966e-007 -1 1.56832e-007
    length 17.3336
    axis -3.4909 -0.000906625 0.00028951 xyz
    dof rx ry rz
  end
  begin
    id 23
    name RightLeg
    direction -1.82786e-007 -1 -1.80317e-007
    length 14.9995
    axis 3.68513 0.0193739 -0.131021 xyz
    dof rx ry rz
  end
  begin
    id 24
    name RightFoot
    direction 8.31721e-007 -4.63324e-011 1
    length 6.74421
    axis 4.81691e-005 -0.120479 -0.188785 xyz
    dof rx ry rz
  end
  begin
    id 25
    name RightToes
    direction 0.00124746 -0.014064 0.9999
    length 3.85082
    axis 0.000481921 0.542163 -0.142575 xyz
    dof rx ry rz
  end
:hierarchy
  begin
    root LeftUpLegDummy SpineDummy RightUpLegDummy
    LeftUpLegDummy LeftUpLeg
    LeftUpLeg LeftLeg
    LeftLeg LeftFoot
    LeftFoot LeftToes
    SpineDummy Spine
    Spine Spine1
    Spine1 RightShoulderDummy LeftShoulder1Dummy HEadDummy
    RightShoulderDummy RightShoulder
    RightShoulder RightArm
    RightArm RightForeArm
    RightForeArm RightHand
    LeftShoulder1Dummy LeftShoulder1
    LeftShoulder1 LeftArm
    LeftArm LeftForeArm
    LeftForeArm LeftHand
    HEadDummy HEad
    RightUpLegDummy RightUpLeg
    RightUpLeg RightLeg
    RightLeg RightFoot
    RightFoot RightToes
  end

:SAMPLES-PER-SECOND 30
:FULLY-SPECIFIED
:DEGREES
209
root  -9.17632 34.4311 5.18805 13.335 73.1082 2.78755
LeftUpLeg  -8.6702 17.3502 1.50339
LeftLeg  5.94732 17.3178 0.674047
LeftFoot  5.6626 -0.0873098 1.76526
LeftToes  -20.2436 6.91067e-007 1.07128e-007
Spine  2.8083 -1.00168 1.67998
Spine1  5.58601 -2.03612 3.46731
RightShoulder  -0.0215854 2.35018 -0.0126784
RightArm  37.0873 -46.8235 46.5774
RightForeArm  54.3317 77.3997 128.154
RightHand  9.19895 -26.8941 -36.8146
LeftShoulder1  -0.00286694 -0.518039 -4.85284
LeftArm  51.1904 45.2607 -36.5473
LeftForeArm  77.6974 -73.6466 -143.016
LeftHand  4.75836 30.4942 16.9602
HEad  -4.42878 21.7715 -11.4304
RightUpLeg  -14.9473 -12.4659 -2.4682
RightLeg  3.08389 8.28452 -0.0844177
RightFoot  10.2351 -0.0971277 1.46196
RightToes  -31.5175 -0.154509 -0.262374
210
root  -9.16951 34.4366 4.77828 14.7043 73.3539 4.29473
LeftUpLeg  -8.76839 17.7676 0.292764
LeftLeg  5.72711 16.7631 0.589496
LeftFoot  5.13122 -0.0692488 1.54534
LeftToes  -18.4615 6.91067e-007 1.07128e-007
Spine  2.7477 -0.847036 1.27854
Spine1  5.47881 -1.70094 2.68062
RightShoulder  -0.0211783 2.29856 -0.216717
RightArm  35.3357 -46.8562 48.4906
RightForeArm  48.9908 78.432 120.823
RightHand  8.76261 -27.2419 -34.716
LeftShoulder1  -0.00240361 -0.161771 -5.13548
LeftArm  50.4632 44.9296 -36.3235
LeftForeArm  77.7194 -73.3082 -143.941
LeftHand  5.9684 30.7754 21.0776
HEad  -4.63991 26.7741 -12.3763
RightUpLeg  -14.9744 -12.6492 -3.54033
RightLeg  2.95027 8.05155 -0.10082
RightFoot  10.8067 -0.106085 1.49898
RightToes  -32.2078 -0.159416 -0.267014
211
root  -9.18237 34.4393 4.40807 16.0362 74.0015 5.75327
LeftUpLeg  -8.87304 16.679 -0.63565
LeftLeg  5.53867 17.1294 0.546471
LeftFoot  4.8379 -0.0629747 1.49066
LeftToes  -17.4614 6.91067e-007 1.07128e-007
Spine  2.6914 -0.683775 0.942101
Spine1  5.37719 -1.35224 2.03576
RightShoulder  -0.0207052 2.40719 -0.162635
RightArm  33.8488 -46.9383 49.7041
RightForeArm  44.3512 79.1064 114.001
RightHand  8.40755 -27.9332 -32.5516
LeftShoulder1  -0.0020382 0.109454 -5.35223
LeftArm  49.8875 44.433 -35.9671
LeftForeArm  78.874 -73.0501 -144.6
LeftHand  6.67436 30.319 23.9171
HEad  -4.80872 30.348 -13.4536
RightUpLeg  -14.8156 -12.3518 -4.58541
RightLeg  2.62358 6.92917 -0.126377
RightFoot  11.511 -0.0998795 1.36839
RightToes  -33.2397 -0.166855 -0.27384
212
root  -9.16739 34.428 4.05174 17.2397 74.6437 7.14877
LeftUpLeg  -9.10641 15.9504 -1.45507
LeftLeg  5.97934 17.0571 0.673598
LeftFoot  4.21945 -0.0490794 1.29477
LeftToes  -16.6943 6.91067e-007 1.07128e-007
Spine  2.66328 -0.393789 0.6143
Spine1  5.32984 -0.753826 1.40707
RightShoulder  -0.020179 2.75948 0.0641757
RightArm  31.3585 -47.6076 50.8729
RightForeArm  39.5337 79.6479 105.623
RightHand  7.60504 -28.2431 -29.2211
LeftShoulder1  -0.00172566 0.323474 -5.39769
LeftArm  49.4404 43.6787 -35.8475
LeftForeArm  83.4527 -73.2531 -144.008
LeftHand  6.5689 28.0982 25.4571
HEad  -4.73726 32.7384 -14.1379
RightUpLeg  -14.4826 -11.4998 -5.70472
RightLeg  2.27599 5.28202 -0.128527
RightFoot  12.1778 -0.0766374 1.09591
RightToes  -34.4613 -0.175818 -0.281746
213
root  -9.13665 34.408 3.70628 17.6417 75.4684 7.73558
LeftUpLeg  -9.41912 16.132 -2.03063
LeftLeg  6.67092 15.9932 0.823528
LeftFoot  3.35078 -0.0281205 0.961373
LeftToes  -15.832 6.91067e-007 1.07128e-007
Spine  2.66469 -0.111237 0.381501
Spine1  5.3382 -0.179614 0.95097
RightShoulder  -0.0195004 2.82005 0.298597
RightArm  28.6354 -47.4224 52.4939
RightForeArm  28.0259 80.0197 91.3072
RightHand  6.80598 -27.9178 -26.532
LeftShoulder1  -0.00142097 0.443191 -5.50562
LeftArm  48.0167 42.8519 -36.516
LeftForeArm  86.0464 -74.1782 -141.334
LeftHand  6.2219 26.2735 25.8424
HEad  -4.92041 34.8289 -14.8999
RightUpLeg  -14.1286 -10.9604 -6.52696
RightLeg  2.106 3.8611 -0.105442
RightFoot  12.7108 -0.0502868 0.828991
RightToes  -35.5347 -0.183831 -0.288534
214
root  -9.09423 34.3873 3.36519 18.3412 76.5062 8.60295
LeftUpLeg  -9.62492 15.9782 -2.58685
LeftLeg  7.13834 15.0256 0.896333
LeftFoot  2.64515 -0.0164289 0.711577
LeftToes  -15.1418 6.91067e-007 1.07128e-007
Spine  2.61981 0.0771045 0.143069
Spine1  5.25132 0.202689 0.460564
RightShoulder  -0.0187241 2.92488 0.531065
RightArm  25.4103 -46.6432 54.6858
RightForeArm  10.7973 79.5026 71.6327
RightHand  6.02486 -28.1355 -23.3458
LeftShoulder1  -0.00107909 0.707051 -5.92522
LeftArm  46.1419 41.5551 -37.0707
LeftForeArm  85.1247 -75.5441 -136.6
LeftHand  5.47519 26.1613 22.8821
HEad  -5.4323 37.3731 -15.835
RightUpLeg  -13.7415 -10.943 -7.31183
RightLeg  1.984 2.79341 -0.0821815
RightFoot  13.2119 -0.0277226 0.616898
RightToes  -36.5111 -0.19123 -0.294578
215
root  -9.04939 34.3686 3.0402 19.5627 77.7067 9.90726
LeftUpLeg  -9.77961 15.4636 -3.15219
LeftLeg  7.34402 14.25 0.901804
LeftFoot  2.10135 -0.0098284 0.535894
LeftToes  -14.2786 6.91067e-007 1.07128e-007
Spine  2.53082 0.257445 -0.0754084
Spine1  5.07209 0.561289 -0.0245831
RightShoulder  -0.017866 3.20337 0.919286
RightArm  21.5121 -45.7296 57.0946
RightForeArm  -5.01106 77.5046 52.4874
RightHand  5.11102 -28.3283 -19.6838
LeftShoulder1  -0.000654972 1.12296 -6.42492
LeftArm  44.4751 39.5398 -37.538
LeftForeArm  79.0538 -77.5124 -126.893
LeftHand  4.41745 26.3615 18.3295
HEad  -6.0995 39.9739 -16.795
RightUpLeg  -13.5131 -11.5218 -7.99562
RightLeg  2.10693 2.08898 -0.0568327
RightFoot  13.6013 -0.0109482 0.46933
RightToes  -37.3703 -0.197824 -0.29979
